<?xml version="1.0" standalone="no"?>
<!DOCTYPE svg PUBLIC "-//W3C//DTD SVG 20010904//EN"
 "http://www.w3.org/TR/2001/REC-SVG-20010904/DTD/svg10.dtd">
<svg version="1.0" xmlns="http://www.w3.org/2000/svg"
 width="912.000000pt" height="912.000000pt" viewBox="0 0 912.000000 912.000000"
 preserveAspectRatio="xMidYMid meet">
<metadata>
Created by potrace 1.14, written by Peter Selinger 2001-2017
</metadata>
<g transform="translate(0.000000,912.000000) scale(0.100000,-0.100000)"
fill="#000000" stroke="none">
<path d="M4380 9109 c-19 -5 -39 -11 -45 -12 -5 -2 -36 -15 -67 -31 -113 -55
-208 -178 -241 -311 -50 -200 57 -425 249 -521 l74 -37 0 -297 0 -297 -1172 0
c-645 0 -1185 -3 -1201 -6 -42 -9 -113 -47 -141 -76 -29 -31 -75 -119 -76
-147 0 -10 -2 -127 -4 -259 -1 -132 -4 -245 -4 -250 -1 -6 -63 -11 -165 -11
-154 -1 -167 -2 -218 -27 -52 -25 -109 -68 -109 -83 0 -4 -6 -15 -14 -23 -41
-47 -42 -69 -41 -1141 1 -564 5 -1043 9 -1065 15 -83 109 -176 200 -199 23 -6
108 -11 189 -10 81 1 148 -2 148 -5 1 -3 3 -114 4 -246 2 -132 6 -251 10 -265
3 -14 7 -29 9 -35 16 -70 119 -157 201 -171 22 -4 456 -7 965 -8 737 0 926 -2
930 -13 4 -10 5 -368 1 -394 -1 -4 -162 -6 -358 -6 -197 0 -373 -3 -392 -7
-48 -9 -85 -39 -106 -83 -15 -31 -18 -65 -19 -186 l0 -147 -30 -1 c-17 0 -209
-1 -426 -2 -393 -2 -395 -2 -439 -26 -98 -52 -152 -140 -156 -256 -2 -38 -3
-72 -4 -75 -1 -3 -97 -5 -214 -6 -207 -1 -285 -6 -306 -19 -6 -3 -21 -8 -33
-10 -64 -13 -192 -96 -261 -170 -68 -73 -139 -205 -149 -276 -2 -13 -7 -29
-10 -35 -4 -6 -6 -102 -5 -215 3 -193 4 -208 29 -277 45 -121 117 -223 208
-294 l35 -27 0 -453 c1 -431 2 -455 20 -492 11 -22 37 -54 58 -70 l39 -31
3114 -3 c3062 -2 3116 -2 3157 17 45 21 67 42 92 90 13 26 15 93 15 482 l0
452 73 72 c39 39 78 78 85 88 25 33 72 119 75 135 1 9 5 22 8 27 4 6 10 24 14
40 4 17 9 39 12 50 3 11 6 95 7 188 3 177 -9 264 -44 343 -11 23 -20 46 -20
50 0 17 -95 136 -145 182 -54 50 -200 132 -234 132 -10 0 -21 3 -25 7 -11 11
-42 13 -271 17 -121 3 -225 5 -232 5 -8 1 -12 21 -12 59 0 31 -2 70 -6 86 -16
77 -78 152 -155 189 -44 21 -56 22 -488 24 -244 1 -446 4 -450 7 -3 4 -6 73
-7 154 -1 116 -5 154 -18 179 -22 41 -61 71 -105 79 -19 4 -184 7 -366 8
l-331 1 0 205 0 205 950 1 950 1 48 23 c87 41 155 129 162 209 2 20 4 140 4
266 l1 231 158 1 c148 1 160 2 215 27 72 33 136 111 152 183 11 51 13 2073 2
2126 -9 45 -53 113 -96 146 -72 57 -101 64 -273 65 l-158 1 -1 255 c-1 140 -1
258 0 262 0 4 -10 32 -23 62 -39 88 -114 147 -206 163 -19 3 -559 6 -1200 6
l-1165 0 0 296 0 295 69 36 c73 39 176 124 176 147 0 7 4 13 9 13 10 0 55 99
70 155 15 55 14 160 -3 222 -41 152 -156 278 -301 328 -58 20 -204 28 -255 14z"/>
</g>
</svg>
