<svg width="68" height="59" viewBox="0 0 68 59" fill="none" xmlns="http://www.w3.org/2000/svg">
<path fill-rule="evenodd" clip-rule="evenodd" d="M32.2463 0.0616566L32.2108 0H17.4668L0 29.9431L11.99 50.9223L12.0047 50.8969L16.5374 58.7478L51.2023 58.9029L63.3759 38.0295H63.2949L67.792 30.2404L50.5939 0.142154L32.2463 0.0616566ZM43.6518 20.0302H43.7437L35.0767 4.97739L47.7413 5.03291L62.1375 30.2277L57.6314 38.0327L45.8226 38.0389L49.9399 30.9081L43.6518 20.0302ZM29.2438 4.90318L35.1536 15.1267L26.9712 15.1264L12.9627 39.4199L12.0072 41.0706L5.6619 29.9681L20.2831 4.90318H29.2438ZM23.5619 30.8543L29.8037 20.0297L37.9881 20.03L44.2772 30.9095L40.159 38.0421L27.7154 38.0488L23.5619 30.8543ZM14.8338 45.9906L17.2085 41.8725L20.7398 35.7729L24.8853 42.9535L37.327 42.9468L37.3069 42.9816L54.7996 43.0023L48.3932 53.987L19.3756 53.8572L14.8338 45.9906Z" fill="#333237"/>
</svg>
